<svg width="18" height="18" viewBox="0 0 18 18" fill="none" xmlns="http://www.w3.org/2000/svg">
<path d="M7.6499 15.5812C7.73564 15.8733 7.91367 16.1297 8.15734 16.3122C8.401 16.4946 8.6972 16.5932 9.00159 16.5932C9.30598 16.5932 9.60218 16.4946 9.84584 16.3122C10.0895 16.1297 10.2675 15.8733 10.3533 15.5812" stroke="#8AA398" stroke-width="1.12" stroke-linecap="round" stroke-linejoin="round"/>
<path d="M9 2.925V1.40625" stroke="#8AA398" stroke-width="1.12" stroke-linecap="round" stroke-linejoin="round"/>
<path d="M8.9998 2.92499C10.3425 2.92499 11.6301 3.45836 12.5795 4.40776C13.5289 5.35716 14.0623 6.64483 14.0623 7.98749C14.0623 12.7435 15.0748 13.5562 15.0748 13.5562H2.9248C2.9248 13.5562 3.9373 12.2629 3.9373 7.98749C3.9373 6.64483 4.47067 5.35716 5.42008 4.40776C6.36948 3.45836 7.65715 2.92499 8.9998 2.92499V2.92499Z" stroke="#8AA398" stroke-width="1.12" stroke-linecap="round" stroke-linejoin="round"/>
</svg>
